<svg width="38" height="40" viewBox="0 0 38 40" fill="none" xmlns="http://www.w3.org/2000/svg">
<g clip-path="url(#clip0_432_1071)">
<path d="M35.4663 2.91663H2.53299C1.36705 2.91663 0.421875 3.84937 0.421875 4.99996V37.5C0.421875 38.6506 1.36705 39.5833 2.53299 39.5833H35.4663C36.6323 39.5833 37.5774 38.6506 37.5774 37.5V4.99996C37.5774 3.84937 36.6323 2.91663 35.4663 2.91663Z" fill="#6E23B6" stroke="white" stroke-width="2"/>
<path d="M30.7157 6.77087H29.6602V15.3125H30.7157V6.77087Z" fill="#6E23B6" stroke="white" stroke-width="2.5"/>
<path d="M34.5176 11.5625V10.5209H25.862V11.5625H34.5176Z" fill="#6E23B6" stroke="white" stroke-width="2.5"/>
<path d="M5.24414 33.3334L14.2172 9.95337H20.3884L29.3615 33.3334H23.2612L21.8425 29.1684H12.7631L11.3444 33.3334H5.24414ZM14.2881 24.6884H20.3175L17.2673 15.7984L14.2881 24.6884Z" fill="white"/>
</g>
<defs>
<clipPath id="clip0_432_1071">
<rect width="38" height="40" fill="white"/>
</clipPath>
</defs>
</svg>
